<svg xmlns="http://www.w3.org/2000/svg"  viewBox="0 0 100 100" width="100px" height="100px"><path fill="#fff" d="M51.001,85.995c33.91-14.233,38.016-54.12,36.749-62.415c-3-2.07-8.93-5.28-19.2-7.13 C63.7,15.57,57.88,15,50.95,15h-0.04c-7.36,0-13.59,0.7-18.54,1.69C33.306,18.485,34,20.836,34,23c0,7.18-5.82,13-13,13 c-2.548,0-4.925-0.733-6.931-2C14.069,34,18.545,71.762,51.001,85.995z"/><path fill="#757373" d="M75.083,56.015l3.539,4.844l5.531-12.458L79,46C77.84,50,76.352,53.2,75.083,56.015z"/><path fill="#3070b7" d="M78.92,46.15c-1.96-1.4-4.46-2.53-7.26-3.07c-1.77-0.29-4.12,0.14-5.44,1.31l-1.18-0.29v-0.15 c0,0,2.21-1.45,3.09-1.74c0,0,0.44-0.15,0.74-0.3c0-0.29-0.15-0.58-1.33-1.16c-0.57-0.28-1.23-0.39-1.76-0.42 C67.86,34.96,69,29.11,69,23c0-0.13,0-0.27-0.01-0.4c5.69,1.18,10.07,2.83,12.53,4.48l6.23-3.5 C88.18,27.96,80.98,47.61,78.92,46.15z"/><path fill="#3070b7" d="M78.14,52.1c0,0-0.27,0.77-1.62,0.67c-2.66-0.2-6.1,0.14-8.83-1.69c0.73-1.31,1.03-2.76,0.88-3.78 c-0.14-1.31-0.59-1.6-1.47-2.19c-0.15-0.14-0.3-0.14-0.44-0.29c3.19-1.47,8.37,1.01,11.17,4.58C78.91,50.78,78.14,52.1,78.14,52.1 z"/><path fill="#3070b7" d="M66.36,46.86v0.15l-1.17,1.45l-0.15,0.15l-0.29-0.44C64.75,48.17,65.78,46.86,66.36,46.86z"/><path fill="#3070b7" d="M67.54,48.75h-1.62v-0.14l1.18-1.6C67.1,47.01,67.84,47.73,67.54,48.75z"/><path fill="#3070b7" d="M67.54,49.63c0,0-0.15,0.58-0.59,1.16c-0.44,0.58-0.88,1.02-0.88,1.02l-0.44-1.89l0.15-0.15 L67.54,49.63z"/><path fill="#3070b7" d="M64.45,49.48v0.29l-0.73,1.6c0,0-0.15-1.02,0.59-2.47C64.45,49.19,64.6,49.48,64.45,49.48z"/><path fill="#3070b7" d="M65.48,52.24c0,0-0.73,0.29-1.47,0l-0.15-0.14l0.89-1.6h0.14L65.48,52.24z"/><path fill="#3070b7" d="M74.14,62.8c-4.71,8.01-9.92,12.27-10.6,10.75c-1.86-4.17-6.72-8.85-13.06-12.67 c3.55-2.76,6.69-6.01,9.34-9.65c0.11,0.36,0.27,0.73,0.51,1.02c0.74,0.87,2.65,1.74,3.24,1.74c0.59,0,2.06,0,3.38-1.74V52.1 c2.21,2.62,5.3,3.64,8.39,3.64C78.28,55.74,76.05,59.75,74.14,62.8z"/><path fill="#3070b7" d="M58.92,80.47c-4.27,2.91-5.72,4.51-7.93,5.53c-3.91-1.87-12.15-5.07-20.89-15.86 c6.35-1.22,12.26-3.69,17.45-7.15c7.52,3.26,13.31,7.69,14.99,11.81C63.13,76.4,61.42,78.87,58.92,80.47z"/><circle cx="21" cy="23" r="9" fill="#757373"/><path fill="#1f212b" d="M21,33c-5.514,0-10-4.486-10-10s4.486-10,10-10s10,4.486,10,10S26.514,33,21,33z M21,15 c-4.411,0-8,3.589-8,8s3.589,8,8,8s8-3.589,8-8S25.411,15,21,15z"/><polygon fill="none" points="31.34,38.13 31.2,38.13 31.34,37.26"/><polygon fill="none" points="31.64,37.4 31.64,38.28 31.49,38.28 31.49,37.26"/><polygon fill="none" points="31.78,38.57 31.64,38.57 31.78,37.55"/><polygon fill="none" points="32.08,38.71 31.93,38.71 32.08,37.69"/><polygon fill="none" points="32.37,38.86 32.23,38.86 32.37,37.84"/><polygon fill="none" points="32.52,37.84 32.81,37.69 32.81,38.86 32.52,39"/><path fill="none" d="M42.67,34.93c0,0.58-0.44,0.58-0.44,0.58c-0.14-0.29-0.14-0.44-0.14-0.73c0-0.06,0.07-0.15,0.14-0.24 c0.1-0.1,0.21-0.19,0.3-0.19c0,0,0.1,0.01,0.15,0.15C42.71,34.58,42.73,34.7,42.67,34.93z"/><path fill="none" d="M42.97,44.68v0.19c-0.49,0.49-0.99,0.96-1.51,1.42c-0.12-0.55-0.14-1.49,0.48-2.63L42.97,44.68z"/><path fill="none" d="M45.32,41.48L44,43.52l-0.3,0.14l-1.17-0.87C42.53,42.79,43.7,41.33,45.32,41.48z"/><path fill="none" d="M47.55,39c0,0.01,0,0.01,0,0.01c-0.01,0-0.01-0.01-0.02-0.01C47.53,39,47.54,39,47.55,39z"/><polygon fill="none" points="31.34,38.13 31.2,38.13 31.34,37.26"/><polygon fill="none" points="31.64,37.4 31.64,38.28 31.49,38.28 31.49,37.26"/><polygon fill="none" points="31.78,38.57 31.64,38.57 31.78,37.55"/><polygon fill="none" points="32.08,38.71 31.93,38.71 32.08,37.69"/><polygon fill="none" points="32.37,38.86 32.23,38.86 32.37,37.84"/><polygon fill="none" points="32.52,37.84 32.81,37.69 32.81,38.86 32.52,39"/><path fill="none" d="M43.7,43.66l-1.17-0.87c0,0,1.17-1.46,2.79-1.31L44,43.52L43.7,43.66z"/><path fill="#2a669b" d="M87.75,23.58l-6.23,3.5c-2.46-1.65-6.84-3.3-12.53-4.48c0-0.86-0.03-1.71-0.08-2.56 c-0.07-1.21-0.19-2.41-0.36-3.59C78.82,18.3,84.75,21.51,87.75,23.58z"/><path fill="#3070b7" d="M68.99,22.6c-4.85-1.02-10.67-1.71-17.05-1.78c-0.01,0-0.01,0-0.02,0 c-0.03-0.48-0.07-0.96-0.13-1.44c-0.17-1.49-0.45-2.96-0.84-4.38c6.93,0,12.75,0.57,17.6,1.45c0.17,1.18,0.29,2.38,0.36,3.59 C68.96,20.89,68.99,21.74,68.99,22.6z"/><path fill="#3a83c1" d="M51.92,20.82c-6.46-0.15-12.36,0.42-17.94,1.44v-0.01c-0.11-2.01-0.68-3.9-1.61-5.56 C37.32,15.7,43.55,15,50.91,15h0.04c0.39,1.42,0.67,2.89,0.84,4.38C51.85,19.86,51.89,20.34,51.92,20.82z"/><path fill="none" d="M47.53,39c0.01,0,0.01,0.01,0.02,0.01c0,0,0,0,0-0.01C47.54,39,47.53,39,47.53,39z M65.93,39.44 l-2.5-2.47v-0.44l-1.03-1.02c0,0,0.14-0.43-0.3-0.72c-0.44-0.44-0.88-0.73-1.03-0.88c-0.15-0.14-0.59-0.29-0.59-0.29 s0.3-0.58,0.3-0.87c0,0,0-0.15-0.15-0.15s-1.62-1.02-2.06-1.16C58.13,31.29,56.81,31,56.66,31c-0.15,0-0.3,0.15-0.3,0.29 c0,0.15-0.14,0.88-0.14,0.88l1.17,0.43l-0.15,0.44l-0.73-0.14c-0.44-0.29-2.65-1.17-5-1.46c-0.22-0.03-0.44-0.05-0.66-0.07 c-0.16,0.59-0.34,1.17-0.54,1.74c0.07-0.04,0.18-0.07,0.31-0.07c0.29,0,1.77,0.15,3.38,0.29c1.77,0.29,2.06,0.29,2.21,0.58 c0,0,0.44,1.46,0.74,2.04c0.29,0.73,0.44,1.31,0.29,1.31h-3.83c-1.47,0.15-3.82,0.29-3.82,0.29s-0.44-0.29-0.59-0.29l-0.29-0.36 c-0.36,0.72-0.74,1.42-1.16,2.1c0.21,0.03,1.99,0.28,3.51,2.19l-0.88,0.14l-0.44-0.14c0,0-1.31-1.58-2.19-2.18 c-0.08,0.13-0.15,0.25-0.23,0.37c0.86,0.9,2.59,2.88,3.45,5.01l1.47,1.02L49,44.39c0,0,0.44-2.33-1.18-4.08 c-0.23-0.22-0.46-0.42-0.7-0.6c-1.2,1.87-2.59,3.6-4.15,5.16v0.1l-1.33,1.89c0,0-0.11-0.2-0.18-0.57 c-0.85,0.74-1.74,1.44-2.66,2.09c1.25,1.12,2.95,1.83,3.87,1.83c1.33,0,3.09-1.02,3.98-1.75c0.88-0.73,1.61-2.18,1.76-2.76 c1.32,1.02,2.8,1.45,3.97,0.87l0.59,0.15l3.68,2.03l2.94,1.02c0,0,0,0.72,0.23,1.46c2.43-3.33,4.44-6.99,5.96-10.9 c-0.59-0.06-1.03-0.02-1.03-0.02l1.18-0.72V39.44z M41.94,47.59l1.47-1.75h0.29l0.89,2.18C44.59,48.02,42.97,48.46,41.94,47.59z M45.47,47.73l-0.74-2.32l0.15-0.15l2.35-0.15C47.23,45.11,46.94,46.71,45.47,47.73z M45.03,43.95l-0.15-0.15l1.18-2.03 c0,0,1.32,0.73,1.32,2.33L45.03,43.95z M58.13,35.22c0,0,1.91,0.44,3.09,2.91l-2.95-1.02l-0.88-1.6L58.13,35.22z M51.5,40.75 c0,0-0.88-1.45-1.76-2.47c0,0,4.7-0.59,10.3,0.58C56.06,38.72,52.97,39.3,51.5,40.75z M55.33,46.28l2.5-2.18l0.29,0.29l1.03,0.43 l-1.91,2.04L55.33,46.28z M59.74,48.02l-1.47-0.43l2.06-2.33l0.89,0.29C61.22,45.55,60.04,46.86,59.74,48.02z M61.95,44.97 l-3.24-1.02l-0.29-0.29l1.26-1.11c0.1,0.06,0.21,0.09,0.21,0.09c0.74,0.29,3.24,1.31,3.83,1.6C63.72,44.24,62.69,44.39,61.95,44.97 z M64.3,40.46c-2.94,0-4.85,1.46-4.85,1.46v0.43c0,0.03,0.02,0.06,0.05,0.09c-0.11-0.04-0.2-0.09-0.2-0.09c0-0.14,0-0.58,0.15-0.72 c0.29-0.29,1.32-0.73,1.91-1.02c0.59-0.15,1.62-0.29,1.77-0.44c0.14-0.15,0.44-0.73,0.44-0.73l1.18,0.15L64.3,40.46z M41.94,43.66 c-0.62,1.14-0.6,2.08-0.48,2.63c0.52-0.46,1.02-0.93,1.51-1.42v-0.19L41.94,43.66z"/><path fill="#40a6dd" d="M31.49,37.26v1.02h0.15V37.4L31.49,37.26z M31.2,38.13h0.14v-0.87L31.2,38.13z M41.94,43.66 c-0.62,1.14-0.6,2.08-0.48,2.63c0.52-0.46,1.02-0.93,1.51-1.42v-0.19L41.94,43.66z M42.53,42.79l1.17,0.87l0.3-0.14l1.32-2.04 C43.7,41.33,42.53,42.79,42.53,42.79z M31.64,38.57h0.14v-1.02L31.64,38.57z M31.93,38.71h0.15v-1.02L31.93,38.71z M32.23,38.86 h0.14v-1.02L32.23,38.86z M42.53,34.35c-0.09,0-0.2,0.09-0.3,0.19l0.15-0.05l0.29,0.01h0.01C42.63,34.36,42.53,34.35,42.53,34.35z M32.52,37.84V39l0.29-0.14v-1.17L32.52,37.84z M59.5,42.43c0.05,0.05,0.11,0.09,0.18,0.12l0.06-0.05 C59.68,42.5,59.58,42.46,59.5,42.43z M47.53,39c0.01,0,0.01,0.01,0.02,0.01c0,0,0,0,0-0.01C47.54,39,47.53,39,47.53,39z"/><path fill="#40a6dd" d="M29.28,35.51v0.29l0.15,0.15l-0.15,0.73l-0.14,0.29h0.14v0.14h0.15v0.15H28.4l0.15-1.6 c0,0-0.3,0-0.3-0.44c0-0.17,0.05-0.92,0.09-1.49c0.21-0.15,0.42-0.3,0.63-0.47l0.61,0.36l-0.15,1.75L29.28,35.51z"/><path fill="#40a6dd" d="M31.49,34.35v0.15c0.29,0.14,1.18,0.72,1.47,0.87h0.3l0.14,0.14c0,0-0.59-0.14-0.73,0.15 c-0.15,0.29-0.3,1.31-0.3,1.31s0,0.43,0.88,0.43v0.15l-0.14,0.14h-0.3l-0.29-0.29l-0.15-0.29l-1.32-0.73v0.59h0.14v0.87h-0.14 v-0.58l-0.15,1.02h-0.88l0.14-1.6c0,0-0.44-0.15-0.29-0.44c0-0.29,0.15-2.33,0.15-2.33s0.29-1.16,1.03-2.03 c0.29,0.14,0.73,0.29,1.32,0.43v0.15l0.15-0.44l2.8,0.73c0,0-0.63,0.09-0.98,0.12l0.09,0.02c0,0-2.2,0.44-2.5,0.44 c0,0.15-0.15,0.15-0.15,0.29h-0.14v0.58L31.49,34.35z"/><path fill="#40a6dd" d="M37.52,32.6c-0.44,0-1.32,0.15-1.32,0.15s-0.44-0.44-2.8-0.73c0-0.58,0.15-1.02,0.15-1.02 S36.79,32.02,37.52,32.6z"/><path fill="#40a6dd" d="M43.12,35.08c0,0.29-0.15,0.58-0.45,0.58c-0.29-0.15-0.44-0.15-0.44-0.15s0.44,0,0.44-0.58 c0.06-0.23,0.04-0.35,0.01-0.43C42.7,34.51,43.11,34.65,43.12,35.08z"/><path fill="#40a6dd" d="M42.09,34.78c0,0.29,0,0.44,0.14,0.73l-0.29,0.15h-0.15l0.15-1.02l0.29-0.1 C42.16,34.63,42.09,34.72,42.09,34.78z"/><path fill="#40a6dd" d="M42.67,34.93c0,0.58-0.44,0.58-0.44,0.58c-0.14-0.29-0.14-0.44-0.14-0.73 c0-0.06,0.07-0.15,0.14-0.24c0.1-0.1,0.21-0.19,0.3-0.19c0,0,0.1,0.01,0.15,0.15C42.71,34.58,42.73,34.7,42.67,34.93z"/><path fill="#40a6dd" d="M44,34.93v0.58c0,0.29-0.3,0.29-0.3,0.29l-0.44-0.14c0.15,0,0.44-0.15,0.3-0.29 c0.14-0.44-0.15-0.58-0.15-0.58c0-0.15-0.15-0.15-0.15,0h-0.14c0,0,0-0.15-0.15-0.29l0.59,0.14L44,34.93z"/><path fill="#40a6dd" d="M48.12,36.53c-2.21-0.43-3.83-0.43-3.83-0.43v-1.17C44.29,34.93,46.65,35.51,48.12,36.53z"/><path fill="#40a6dd" d="M49.44,32.75c0,0-2.5,1.45-2.65,1.45c-0.14,0-0.58,0.3-1.32,0c-0.88-0.29-2.94-1.01-3.09-1.01 S41.2,32.6,41.2,32.6s3.8-1.3,3.98-1.3C45.18,31.3,47.24,31.88,49.44,32.75z"/><path fill="#40a6dd" d="M52,23c0,2.9-0.4,5.71-1.15,8.37C48.68,31.12,46.47,31,46.21,31c-0.3,0-0.59,0.15-2.06,0.59 c-1.47,0.43-2.5,0.87-3.09,0.87c-0.59,0.14-2.65,0.14-2.65,0.14s0-0.14-0.88-0.58c-0.89-0.44-2.95-1.45-3.68-1.6 c-0.15,0-0.15,0.15-0.15,0.15s-0.44,0-0.44,0.72c-0.15-0.14-0.44-0.14-0.44-0.14l-0.3,0.73c-0.68-0.14-1.24-0.27-1.66-0.41 c0.02-0.02,0.04-0.05,0.05-0.07c1.93-2.27,3.09-5.21,3.09-8.41c0-0.24-0.01-0.49-0.02-0.73c5.58-1.02,11.48-1.59,17.94-1.44 C51.97,21.54,52,22.27,52,23z"/><path fill="#40a6dd" d="M50.31,33.11c-0.45,1.31-0.98,2.57-1.6,3.79l-0.89-1.09c0,0-0.44-0.58-0.29-0.73 c0.15-0.29,0.29-0.44,1.03-0.87c0.74-0.44,1.62-1.02,1.62-1.02S50.22,33.15,50.31,33.11z"/><path fill="#40a6dd" d="M47.32,39.38c-0.07,0.11-0.13,0.22-0.2,0.33c-1.61-1.21-3.44-1.43-4.59-1.43 c-1.33,0.14-3.24,1.45-3.83,2.32c-0.59,0-2.06-0.14-2.06-0.14l-0.29,0.58l-0.15,0.14h-0.15l-0.88,0.3c0,0-0.15,0.14-0.74-0.15 c-0.14-0.14-0.29-0.14-0.58-0.29c-0.3,0.15-1.03,0.15-1.62-0.14c-0.74-0.29-1.03-0.88-1.18-1.17H30.9v-1.16l2.06,1.6h0.15 l0.59-0.29c0,0,0.14-0.15,0.14-0.29c0-0.15,0.15-0.44,0.15-0.44l0.44-0.44c-0.14-0.29-0.88-1.45-1.03-1.6l0.3-1.16 c0,0,1.32,1.6,1.62,2.18l0.88-0.29c0.08-0.56,0.41-1.09,0.73-1.31c0.44-0.29,0.89,0.29,0.89,0.29s-0.44-0.43-0.89,0.15 c-0.58,0.73-0.73,1.89,0,2.18c-0.44,0-0.59,0-0.73-0.73c-0.04-0.17-0.03-0.36-0.01-0.54c-0.04,0.21-0.21,1.28,0.45,1.42l0.74,0.14 h0.29c0,0,0.88-0.44,1.18-0.73c0.29-0.43,0.29-1.02,0-1.45c0.44-0.15,2.35-0.44,4.41,0c-0.14-0.15-0.29-0.44-0.29-0.44 c-0.15-0.14-0.88-0.29-3.39-0.87c0,0,0-0.15,0.89,0c0.88,0.14,2.5,0.29,2.94,0.58c0.44,0.29,0.74,0.58,0.74,0.58l0.29,0.58 c0.29,0.44,0.44,0.58,0.44,0.58s0.3,0.3,0.74,0.44c0.44,0,1.18,0.15,1.18,0.15S47,39.05,47.32,39.38z"/><path fill="#40a6dd" d="M38.8,48.38c-3.14,2.21-6.71,3.85-10.56,4.77c-6.3-1.32-10.5-3.4-11.9-8.47 c-1.13-4.01-1.97-7.61-2.3-10.7v-0.01c0.75,0.48,1.56,0.89,2.41,1.21c0.33,0.13,0.67,0.24,1.01,0.33 c0.24,0.07,0.48,0.13,0.72,0.18c0.01,0.01,0.02,0.01,0.03,0.01c0.3,0.07,0.6,0.12,0.91,0.16c0.22,0.04,0.45,0.06,0.68,0.08 c0.16,0.02,0.32,0.03,0.49,0.04c0.23,0.01,0.47,0.02,0.7,0.02c0.24,0,0.48-0.01,0.71-0.02c0.19-0.01,0.37-0.02,0.56-0.05 c0.04,0,0.09,0,0.13-0.01c0.19-0.01,0.39-0.04,0.58-0.07c0.44-0.07,0.87-0.16,1.29-0.27c0.2-0.04,0.39-0.1,0.58-0.16 c0.46-0.14,0.91-0.31,1.35-0.5c0.25-0.11,0.49-0.23,0.73-0.35c0.26-0.13,0.51-0.27,0.75-0.42v0.05h0.14c0,0,0,0.58,0.3,1.6 c-0.15,0.15-0.59,1.46-0.3,2.91c0.44,1.46,2.06,3.06,3.97,3.64c1.92,0.58,3.68-0.87,3.68-0.87l0.59,0.73l1.47,0.29 c0,0-0.88,2.18,0,4.21C37.79,47.33,38.25,47.9,38.8,48.38z"/><g><path fill="#40a6dd" d="M42.97,44.87v0.1l-1.33,1.89c0,0-0.11-0.2-0.18-0.57C41.98,45.83,42.48,45.36,42.97,44.87z"/></g><g><path fill="#3a83c1" d="M47.55,62.99c-5.19,3.46-11.1,5.93-17.45,7.15c-2.12-2.62-4.28-5.7-6.41-9.31 c-1.32-2.04,0.88-2.77,2.8-2.77C33.79,58.33,41.27,60.26,47.55,62.99z"/><path fill="#3a83c1" d="M69,23c0,6.11-1.14,11.96-3.22,17.33c-0.59-0.06-1.03-0.02-1.03-0.02l1.18-0.72v-0.15l-2.5-2.47 v-0.44l-1.03-1.02c0,0,0.14-0.43-0.3-0.72c-0.44-0.44-0.88-0.73-1.03-0.88c-0.15-0.14-0.59-0.29-0.59-0.29s0.3-0.58,0.3-0.87 c0,0,0-0.15-0.15-0.15s-1.62-1.02-2.06-1.16C58.13,31.29,56.81,31,56.66,31c-0.15,0-0.3,0.15-0.3,0.29c0,0.15-0.14,0.88-0.14,0.88 l1.17,0.43l-0.15,0.44l-0.73-0.14c-0.44-0.29-2.65-1.17-5-1.46c-0.22-0.03-0.44-0.05-0.66-0.07C51.6,28.71,52,25.9,52,23 c0-0.73-0.03-1.46-0.08-2.18c0.01,0,0.01,0,0.02,0c6.38,0.07,12.2,0.76,17.05,1.78C69,22.73,69,22.87,69,23z"/><path fill="#3a83c1" d="M61.22,38.13l-2.95-1.02l-0.88-1.6l0.74-0.29C58.13,35.22,60.04,35.66,61.22,38.13z"/><path fill="#3a83c1" d="M59.82,51.23c-2.65,3.64-5.79,6.89-9.34,9.65c-5.62-3.39-12.39-6.09-19.28-7.18 c-1.03-0.17-2.02-0.35-2.96-0.55c3.85-0.92,7.42-2.56,10.56-4.77c1.25,1.12,2.95,1.83,3.87,1.83c1.33,0,3.09-1.02,3.98-1.75 c0.88-0.73,1.61-2.18,1.76-2.76c1.32,1.02,2.8,1.45,3.97,0.87l0.59,0.15l3.68,2.03l2.94,1.02C59.59,49.77,59.59,50.49,59.82,51.23 z"/><path fill="#3a83c1" d="M47.23,45.11c0,0-0.29,1.6-1.76,2.62l-0.74-2.32l0.15-0.15L47.23,45.11z"/><path fill="#3a83c1" d="M44.59,48.02c0,0-1.62,0.44-2.65-0.43l1.47-1.75h0.29L44.59,48.02z"/><path fill="#3a83c1" d="M47.38,44.1l-2.35-0.15l-0.15-0.15l1.18-2.03C46.06,41.77,47.38,42.5,47.38,44.1z"/><path fill="#3a83c1" d="M49,44.39c0,0,0.44-2.33-1.18-4.08c-0.23-0.22-0.46-0.42-0.7-0.6c0.07-0.11,0.13-0.22,0.2-0.33 c0.86,0.9,2.59,2.88,3.45,5.01l1.47,1.02L49,44.39z"/><path fill="#3a83c1" d="M51.06,41.19l-0.88,0.14l-0.44-0.14c0,0-1.31-1.58-2.19-2.18c0,0,0,0,0-0.01 C47.76,39.03,49.54,39.28,51.06,41.19z"/><path fill="#3a83c1" d="M60.04,38.86c-3.98-0.14-7.07,0.44-8.54,1.89c0,0-0.88-1.45-1.76-2.47 C49.74,38.28,54.44,37.69,60.04,38.86z"/><path fill="#3a83c1" d="M57.24,37.26h-3.83c-1.47,0.15-3.82,0.29-3.82,0.29s-0.44-0.29-0.59-0.29l-0.29-0.36 c0.62-1.22,1.15-2.48,1.6-3.79c0.07-0.04,0.18-0.07,0.31-0.07c0.29,0,1.77,0.15,3.38,0.29c1.77,0.29,2.06,0.29,2.21,0.58 c0,0,0.44,1.46,0.74,2.04C57.24,36.68,57.39,37.26,57.24,37.26z"/><polygon fill="#3a83c1" points="59.15,44.82 57.24,46.86 55.33,46.28 57.83,44.1 58.12,44.39"/><path fill="#3a83c1" d="M61.22,45.55c0,0-1.18,1.31-1.48,2.47l-1.47-0.43l2.06-2.33L61.22,45.55z"/><path fill="#3a83c1" d="M63.72,44.24c0,0-1.03,0.15-1.77,0.73l-3.24-1.02l-0.29-0.29l1.26-1.11 c0.1,0.06,0.21,0.09,0.21,0.09C60.63,42.93,63.13,43.95,63.72,44.24z"/><path fill="#3a83c1" d="M59.45,41.92v0.43c0,0.03,0.02,0.06,0.05,0.09c-0.11-0.04-0.2-0.09-0.2-0.09 c0-0.14,0-0.58,0.15-0.72c0.29-0.29,1.32-0.73,1.91-1.02c0.59-0.15,1.62-0.29,1.77-0.44c0.14-0.15,0.44-0.73,0.44-0.73l1.18,0.15 l-0.45,0.87C61.36,40.46,59.45,41.92,59.45,41.92z"/></g><g><path fill="#757373" d="M14.04,33.97c0.75,0.48,1.56,0.89,2.41,1.21c-0.85-0.31-1.66-0.72-2.41-1.2V33.97z"/></g><g><circle cx="20" cy="22" r="5" fill="#999"/></g><g><circle cx="19" cy="21" r="3" fill="#e3e3e4"/></g><g><path fill="#444445" d="M62.531,74.796c-0.02-0.04-0.04-0.099-0.06-0.139c-3.597,3.576-7.353,6.362-11.469,8.557 c-0.006,0.003-0.001,2.78-0.001,2.78c0.901-0.416,1.964-0.95,3.285-1.603c1.761-0.91,3.882-2.078,6.244-3.641 c0.12-0.099,0.26-0.178,0.4-0.277c0.2-0.119,0.36-0.257,0.52-0.376C63.391,78.496,63.091,76.28,62.531,74.796z M77.838,49.4 c-0.4,1.108-0.833,2.216-1.313,3.364c1.361,0.099,2.497,0.347,3.237,1.079C79.641,52.3,78.918,50.766,77.838,49.4z M75.339,55.723 h-0.12c-0.42,0.91-0.861,1.84-1.341,2.77c-3.082,6.074-6.524,11.021-10.346,15.057c0.7,1.524,0.981,2.968,0.78,4.294 c5.88-3.844,13.528-16.521,13.829-17.016C80.042,57.761,78.281,55.723,75.339,55.723z M87.746,23.57l-6.281,3.47 c0.4,3.997,0.017,10.736-2.545,19.106c2.061,1.464,3.522,3.205,4.103,4.867c0.52-1.187,1.001-2.355,1.421-3.502 c0.2-0.534,0.4-1.088,0.56-1.603C88.706,36.252,88.104,23.941,87.746,23.57z M87.746,23.57l-6.281,3.47 c0.4,3.997,0.017,10.736-2.545,19.106c2.061,1.464,3.522,3.205,4.103,4.867c0.52-1.187,1.001-2.355,1.421-3.502 c0.2-0.534,0.4-1.088,0.56-1.603C88.706,36.252,88.104,23.941,87.746,23.57z"/></g><g><path fill="#1f212b" d="M79.063,46.177c-0.048,0-0.098-0.007-0.146-0.022c-0.264-0.081-0.413-0.36-0.332-0.625 c0.273-0.892,0.38-1.3,0.605-2.153c0.071-0.268,0.349-0.424,0.61-0.356c0.267,0.07,0.427,0.344,0.356,0.61 c-0.229,0.869-0.338,1.284-0.616,2.192C79.475,46.038,79.277,46.177,79.063,46.177z M80.184,41.938 c-0.037,0-0.075-0.004-0.112-0.013c-0.269-0.062-0.437-0.33-0.375-0.599c0.147-0.643,0.281-1.273,0.402-1.889 c0.053-0.271,0.315-0.447,0.587-0.395c0.271,0.053,0.448,0.316,0.395,0.587c-0.123,0.626-0.259,1.267-0.409,1.92 C80.617,41.781,80.412,41.938,80.184,41.938z M81.099,37.048c-0.023,0-0.047-0.001-0.072-0.005 c-0.273-0.04-0.463-0.293-0.424-0.566c0.144-0.994,0.257-1.985,0.339-2.944c0.023-0.275,0.254-0.491,0.541-0.456 c0.275,0.023,0.479,0.266,0.456,0.541c-0.083,0.979-0.2,1.988-0.345,3.002C81.558,36.868,81.344,37.048,81.099,37.048z M81.57,32.035c-0.007,0-0.014,0-0.02,0c-0.276-0.011-0.491-0.243-0.48-0.519c0.064-1.621,0.03-3.109-0.102-4.425 c-0.02-0.199,0.081-0.391,0.256-0.487l6.281-3.47c0.242-0.135,0.546-0.045,0.679,0.196c0.134,0.242,0.046,0.546-0.196,0.679 l-5.994,3.312c0.11,1.278,0.136,2.701,0.075,4.234C82.059,31.824,81.837,32.035,81.57,32.035z"/></g><g><path fill="#1f212b" d="M51.001,86.995c-0.137,0-0.273-0.028-0.402-0.084c-32.602-14.297-37.478-52.41-37.523-52.793 c-0.045-0.383,0.133-0.758,0.459-0.963c0.327-0.206,0.743-0.206,1.068,0C16.515,34.362,18.727,35,21,35c6.617,0,12-5.383,12-12 c0-1.84-0.567-4.026-1.517-5.848c-0.146-0.279-0.151-0.61-0.015-0.894c0.136-0.284,0.397-0.487,0.706-0.549 C37.846,14.575,44.15,14,50.91,14c6.477,0,12.458,0.493,17.818,1.466c10.093,1.818,16.224,4.968,19.589,7.291 c0.227,0.157,0.379,0.4,0.421,0.672c1.513,9.908-3.726,49.375-37.351,63.488C51.264,86.969,51.132,86.995,51.001,86.995z M15.38,35.826c1.454,7.804,8.6,36.977,35.629,49.08c33.669-14.427,36.505-53.732,35.804-60.752 c-3.276-2.183-9.061-5.03-18.441-6.719C63.129,16.482,57.268,16,50.95,16c-6.171,0-11.917,0.481-17.133,1.432 C34.567,19.247,35,21.251,35,23c0,7.72-6.28,14-14,14C19.052,37,17.142,36.598,15.38,35.826z"/></g><g><path fill="#1f212b" d="M81.52,27.58c-0.096,0-0.192-0.027-0.278-0.085c-2.529-1.696-7.031-3.302-12.353-4.405 c-0.466-0.099-0.939-0.193-1.421-0.284c-0.271-0.051-0.45-0.313-0.398-0.584c0.051-0.271,0.314-0.448,0.584-0.398 c0.489,0.092,0.969,0.188,1.44,0.288c5.522,1.146,10.035,2.763,12.705,4.554c0.229,0.154,0.291,0.464,0.137,0.693 C81.839,27.502,81.681,27.58,81.52,27.58z"/></g><g><path fill="#1f212b" d="M63.515,22.157c-0.022,0-0.045-0.001-0.068-0.004c-1.329-0.182-2.691-0.336-4.049-0.458 c-0.275-0.025-0.478-0.268-0.453-0.543c0.025-0.275,0.263-0.476,0.543-0.453c1.373,0.124,2.751,0.279,4.095,0.463 c0.273,0.038,0.465,0.29,0.428,0.563C63.976,21.975,63.761,22.157,63.515,22.157z"/></g><g><path fill="#1f212b" d="M56.462,21.475c-0.01,0-0.02,0-0.029-0.001c-0.95-0.055-1.916-0.097-2.896-0.123 c-0.276-0.008-0.494-0.238-0.486-0.514c0.008-0.276,0.249-0.475,0.514-0.486c0.99,0.027,1.967,0.069,2.926,0.125 c0.276,0.016,0.486,0.252,0.47,0.528C56.945,21.27,56.725,21.475,56.462,21.475z"/></g><g><path fill="#1f212b" d="M33.979,22.76c-0.237,0-0.447-0.169-0.491-0.41c-0.05-0.271,0.13-0.532,0.402-0.582 c5.296-0.968,10.407-1.449,15.623-1.471c0,0,0.001,0,0.002,0c0.275,0,0.499,0.223,0.5,0.498c0.001,0.276-0.222,0.501-0.498,0.502 c-5.156,0.022-10.208,0.498-15.447,1.455C34.04,22.757,34.009,22.76,33.979,22.76z"/></g><g><path fill="#1f212b" d="M50.501,85.996c-0.005-3.074-0.005-3.074,0.262-3.22c0.507-0.271,1.004-0.547,1.494-0.833 c0.238-0.139,0.545-0.059,0.684,0.181c0.139,0.238,0.058,0.544-0.181,0.684c-0.416,0.242-0.835,0.478-1.26,0.708 c-0.001,0.707,0.001,2.479,0.001,2.479L50.501,85.996z"/></g><g><path fill="#1f212b" d="M54.385,81.72c-0.164,0-0.324-0.08-0.42-0.228c-0.15-0.231-0.084-0.541,0.147-0.692 c0.937-0.609,1.871-1.267,2.775-1.956c0.219-0.167,0.534-0.125,0.701,0.095c0.167,0.219,0.125,0.533-0.095,0.701 c-0.924,0.704-1.878,1.376-2.836,1.999C54.573,81.694,54.478,81.72,54.385,81.72z"/></g><g><path fill="#1f212b" d="M59.467,77.896c-0.14,0-0.28-0.059-0.379-0.174c-0.18-0.209-0.157-0.525,0.053-0.705 c0.871-0.75,1.751-1.561,2.617-2.41c0.196-0.193,0.513-0.192,0.707,0.007c0.193,0.197,0.19,0.514-0.007,0.707 c-0.88,0.864-1.777,1.69-2.665,2.454C59.699,77.856,59.583,77.896,59.467,77.896z"/></g><g><path fill="#1f212b" d="M63.843,73.718c-0.122,0-0.245-0.044-0.341-0.134c-0.202-0.188-0.213-0.505-0.025-0.707 c1.601-1.716,3.137-3.605,4.568-5.617c0.159-0.225,0.472-0.278,0.697-0.117c0.225,0.16,0.277,0.472,0.117,0.697 c-1.456,2.046-3.021,3.971-4.651,5.718C64.11,73.665,63.977,73.718,63.843,73.718z"/></g><g><path fill="#1f212b" d="M69.804,66.07c-0.094,0-0.189-0.026-0.273-0.082c-0.231-0.151-0.295-0.461-0.144-0.692 c0.618-0.943,1.23-1.933,1.819-2.94c0.139-0.237,0.446-0.319,0.684-0.179c0.238,0.139,0.318,0.445,0.179,0.684 c-0.598,1.022-1.219,2.026-1.846,2.983C70.127,65.991,69.967,66.07,69.804,66.07z"/></g><g><path fill="#1f212b" d="M73.403,59.914c-0.078,0-0.158-0.018-0.231-0.057c-0.245-0.128-0.339-0.43-0.211-0.675 c0.158-0.302,0.315-0.607,0.472-0.915c0.478-0.925,0.713-1.415,1.13-2.317c0.116-0.251,0.413-0.359,0.664-0.245 c0.251,0.116,0.36,0.413,0.245,0.664c-0.424,0.918-0.664,1.416-1.148,2.354c-0.157,0.309-0.316,0.618-0.476,0.923 C73.757,59.816,73.583,59.914,73.403,59.914z"/></g></svg>