<svg xmlns="http://www.w3.org/2000/svg" viewBox="0 0 93.78 76.32"><defs><style>.cls-1{fill:none;}.cls-2{fill:#fff;}</style></defs><g id="Camada_2" data-name="Camada 2"><g id="Camada_1-2" data-name="Camada 1"><path class="cls-1" d="M47.21,30.17a.56.56,0,0,0-.71,0A5.88,5.88,0,0,0,44.22,33a2.76,2.76,0,0,0-.17,1.36,11.78,11.78,0,0,0,1.54,4.32c.37.64.79,1.26,1.25,2a14,14,0,0,0,2.91-6.73,1,1,0,0,0,0-.46A6.4,6.4,0,0,0,47.21,30.17Z"/><path class="cls-2" d="M61.44,17.9a4.26,4.26,0,0,0-4.36,3.39H66A4.44,4.44,0,0,0,61.44,17.9Z"/><path class="cls-2" d="M78.16,14.47a49.47,49.47,0,0,1,12.75-4.16c.89-.2,1.79-.37,2.87-.59C87.87,5,81.33,4.67,74.42,6V2.33c-.31.06-.58.09-.83.15a24,24,0,0,0-7.21,3,.81.81,0,0,1-1.06,0,16.11,16.11,0,0,0-2.15-1.39A34,34,0,0,0,41.37.47a30.34,30.34,0,0,0-13.18,5.1c-.17.13-.57,0-.82-.08C25.24,4.58,23.13,3.61,21,2.71a10.45,10.45,0,0,0-1.73-.41V6A26.77,26.77,0,0,0,9.16,5.6,17.77,17.77,0,0,0,0,9.73c1.77.37,3.37.68,5,1.06a42.37,42.37,0,0,1,11.13,4c1,.56,1,.57.62,1.63-1.94,5.68-3.21,11.47-2.65,17.53a2.11,2.11,0,0,1-.15.77c-.66,2.33-1.5,4.63-2,7a26.25,26.25,0,0,0,1.67,16.23c.51,1.11,1.15,2.15,1.75,3.28L17.2,58a21.45,21.45,0,0,0,4.22,6.32,19,19,0,0,0,6,4.31,19.78,19.78,0,0,1,1.45-6.39A21.85,21.85,0,0,0,32,69.55a15.89,15.89,0,0,0,5.61,5.3l1.6-4.16a18.05,18.05,0,0,1,7.64,5.63c2.7-2.91,4-3.95,6.58-5.15,1-.48,1.06-.5,1.51.55s.76,2,1.17,3.18c4.81-2.86,7.34-7.27,8.73-12.66a20.6,20.6,0,0,1,1.45,6.36A21.1,21.1,0,0,0,76.52,58l1.79,3.13a21.13,21.13,0,0,0,2.8-5.75c2-6.29,1.43-12.52-.59-18.67a13.69,13.69,0,0,1-.76-4.89,41.75,41.75,0,0,0-2.57-14.91C76.65,15.27,76.63,15.27,78.16,14.47ZM32.23,35.32c-6.85,0-11.91-4.92-11.91-11.72A11.42,11.42,0,0,1,32.17,11.84c5.86,0,10.65,3.67,11.6,8.86H37.31a5.4,5.4,0,0,0-5.08-3.09c-3.35,0-5.61,2.42-5.61,6s2.22,5.95,5.61,5.95a5.27,5.27,0,0,0,5.06-2.86H31.74V22.81H44C44,30.12,39.22,35.32,32.23,35.32ZM49.75,33.9a14,14,0,0,1-2.91,6.73c-.46-.72-.88-1.34-1.25-2a11.78,11.78,0,0,1-1.54-4.32A2.76,2.76,0,0,1,44.22,33a5.88,5.88,0,0,1,2.28-2.79.56.56,0,0,1,.71,0,6.4,6.4,0,0,1,2.5,3.27A1,1,0,0,1,49.75,33.9ZM73.46,23.48a13.83,13.83,0,0,1-.16,2H57a4.27,4.27,0,0,0,4.49,3.83,4.42,4.42,0,0,0,4-2.06H73c-1.55,5-6,8.17-11.54,8.17a11.56,11.56,0,0,1-12-11.76c0-6.75,5.05-11.72,12-11.72,7.1,0,12,5.07,12,11.53Z"/></g></g></svg>